<svg width="26" height="26" viewBox="0 0 26 26" fill="none" xmlns="http://www.w3.org/2000/svg">
<path d="M13 25.5C6.09958 25.4924 0.507578 19.9004 0.5 13V12.75C0.637414 5.88069 6.29323 0.409968 13.1633 0.501123C20.0334 0.592278 25.5421 6.21113 25.4972 13.0817C25.4523 19.9523 19.8707 25.4986 13 25.5ZM13 3.00002C7.47715 3.00002 3 7.47717 3 13C3 18.5229 7.47715 23 13 23C18.5229 23 23 18.5229 23 13C22.9938 7.47974 18.5203 3.00622 13 3.00002ZM11.1875 19.25L9.42 17.4813L13.8388 13.0625L9.42 8.64377L11.1875 6.87502L17.375 13.0625L11.1888 19.25H11.1875Z" fill="#EE6767"/>
</svg>
