<svg width="64" height="64" viewBox="0 0 64 64" fill="none" xmlns="http://www.w3.org/2000/svg">
<g clip-path="url(#clip0)">
<path d="M60.6676 54.6779H59.0201C57.8771 51.9621 57.8766 49.3122 59.0189 46.6101H60.6676C62.5051 46.6101 64 45.1152 64 43.2776C64 41.4401 62.5051 39.9451 60.6676 39.9451H54.0379C54.8818 38.9811 55.3947 37.7207 55.3947 36.3419V25.9006C55.3947 22.8799 52.9374 20.4224 49.9168 20.4224H47.2209C47.4496 19.9664 47.5791 19.4522 47.5791 18.9082C47.5791 17.0374 46.0589 15.5152 44.1901 15.5152H43.2627C42.4351 13.4694 42.4346 11.4711 43.2614 9.43837H44.1901C46.0589 9.43837 47.5791 7.91625 47.5791 6.04537C47.5791 4.17663 46.0589 2.65625 44.1901 2.65625H12.5647C7.14875 2.65625 2.7425 7.06087 2.7425 12.4749C2.7425 15.0931 3.76575 17.5582 5.6235 19.4161C5.99288 19.7855 6.38713 20.1204 6.80088 20.4222H6.07487C4.23737 20.4222 2.7425 21.9171 2.7425 23.7547C2.7425 25.5924 4.23737 27.0872 6.07487 27.0872H7.72363C8.86588 29.7891 8.8655 32.4391 7.72237 35.1549H6.07487C4.23737 35.1549 2.7425 36.6497 2.7425 38.4874C2.7425 39.1904 2.96188 39.8427 3.33488 40.3809C1.37638 41.2165 0 43.162 0 45.4234V55.8647C0 58.8855 2.45575 61.3429 5.47425 61.3429H60.6675C62.505 61.3429 63.9999 59.848 63.9999 58.0104C64 56.1729 62.5051 54.6779 60.6676 54.6779ZM60.6676 41.8201C61.4712 41.8201 62.125 42.474 62.125 43.2776C62.125 44.0812 61.4712 44.7351 60.6676 44.7351H43.748C43.2301 44.7351 42.8105 45.1549 42.8105 45.6726C42.8105 46.1904 43.2301 46.6101 43.748 46.6101H57.0078C56.6414 47.6391 56.4174 48.6721 56.3327 49.7065C56.3327 49.7065 55.9583 51.5621 57.0098 54.6779H6.93625C6.78925 54.6779 6.665 54.5536 6.665 54.4065V46.8815C6.665 46.7345 6.78925 46.6102 6.93625 46.6102H16.2239L16.2245 49.6892C16.1654 50.611 16.6155 50.9743 16.8919 51.1092C17.172 51.2463 17.7475 51.3789 18.4556 50.7316C18.4605 50.7271 18.4654 50.7226 18.4701 50.7181L21.0906 48.2187L23.7111 50.7181C23.7159 50.7227 23.7207 50.7272 23.7256 50.7316C24.1401 51.1105 24.5091 51.2224 24.8005 51.2224C25.0086 51.2224 25.1771 51.1652 25.2941 51.1076C25.5709 50.9714 26.0204 50.6064 25.9568 49.6867L25.958 46.6102H39.132C39.6499 46.6102 40.0695 46.1905 40.0695 45.6727C40.0695 45.155 39.6499 44.7352 39.132 44.7352H25.9586L25.9599 41.8202H60.6676V41.8201ZM10.4102 30.1839C10.3257 29.1495 10.0974 28.1166 9.73125 27.0875H48.4588C48.6059 27.0875 48.7301 27.2117 48.7301 27.3587V34.8837C48.7301 35.0308 48.6059 35.155 48.4588 35.155H25.9626L25.9639 32.0586H32.525C33.0429 32.0586 33.4625 31.6389 33.4625 31.1211C33.4625 30.6034 33.0429 30.1836 32.525 30.1836H10.4102V30.1839ZM16.2215 35.1551H9.72913C10.095 34.1246 10.3238 33.0917 10.4093 32.0587H16.2209L16.2215 35.1551ZM24.0889 32.0589L24.0821 48.4809L21.7375 46.2446C21.3754 45.8991 20.8056 45.8991 20.4434 46.2446L18.0991 48.4806L18.0958 32.0587H24.0889V32.0589ZM4.6175 12.475C4.6175 8.09487 8.18262 4.53138 12.5647 4.53138H44.1901C45.025 4.53138 45.7041 5.21062 45.7041 6.0455C45.7041 6.8825 45.0249 7.5635 44.1901 7.5635H26.9079C26.3901 7.5635 25.9704 7.98325 25.9704 8.501C25.9704 9.01875 26.3901 9.4385 26.9079 9.4385H41.2637C40.602 11.4552 40.6029 13.4899 41.2663 15.5154H12.5647C11.7585 15.5154 10.9951 15.1977 10.4189 14.6244C9.84212 14.0446 9.5245 13.2814 9.5245 12.475C9.5245 10.8006 10.8884 9.4385 12.5647 9.4385H22.2919C22.8096 9.4385 23.2294 9.01875 23.2294 8.501C23.2294 7.98325 22.8096 7.5635 22.2919 7.5635H12.5647C9.8545 7.5635 7.6495 9.76675 7.6495 12.475C7.6495 13.7804 8.161 15.0134 9.093 15.9501C10.0265 16.8789 11.2594 17.3904 12.5647 17.3904H44.1901C45.025 17.3904 45.7041 18.0714 45.7041 18.9084C45.7041 19.7432 45.0249 20.4225 44.1901 20.4225H12.5647C10.4474 20.4225 8.45312 19.5944 6.94938 18.0905C5.44563 16.5868 4.6175 14.5925 4.6175 12.475ZM6.07487 25.2125C5.27125 25.2125 4.6175 24.5587 4.6175 23.755C4.6175 22.9514 5.27125 22.2975 6.07487 22.2975H49.9168C51.9035 22.2975 53.5197 23.9139 53.5197 25.9007V36.342C53.5197 38.3289 51.9034 39.9452 49.9168 39.9452H25.9606L25.9619 37.0302H48.4586C49.6421 37.0302 50.605 36.0674 50.605 34.884V27.359C50.605 26.1755 49.6421 25.2127 48.4586 25.2127H6.07487V25.2125ZM6.07487 37.0301H16.2219L16.2225 39.9451H6.075C5.27137 39.9451 4.61763 39.2912 4.61763 38.4876C4.6175 37.684 5.27125 37.0301 6.07487 37.0301ZM60.6676 59.4679H5.47425C3.48962 59.4679 1.875 57.8515 1.875 55.8647V45.4234C1.875 43.4365 3.48962 41.8201 5.47425 41.8201H16.2227L16.2234 44.7351H6.93625C5.75275 44.7351 4.79 45.698 4.79 46.8814V54.4064C4.79 55.5899 5.75288 56.5527 6.93625 56.5527H60.6676C61.4712 56.5527 62.125 57.2066 62.125 58.0102C62.125 58.8139 61.4712 59.4679 60.6676 59.4679Z" fill="#EE6767"/>
</g>
<defs>
<clipPath id="clip0">
<rect width="64" height="64" fill="white"/>
</clipPath>
</defs>
</svg>
