<svg width="126" height="91" viewBox="0 0 126 91" fill="none" xmlns="http://www.w3.org/2000/svg">
<path d="M123.633 26.0437L64.5658 0.326228C63.5668 -0.108743 62.4333 -0.108743 61.4343 0.326228L2.36738 26.0437C-0.788759 27.4178 -0.789497 31.93 2.36738 33.3041L23.6221 42.5582V67.2608C23.6221 80.5726 40.9189 91 63 91C85.0812 91 102.378 80.5726 102.378 67.2608V42.5582L106.316 40.8438V83.0869C106.316 85.2719 108.079 87.0435 110.254 87.0435C112.428 87.0435 114.191 85.2719 114.191 83.0869V37.415L123.633 33.3044C126.789 31.9302 126.789 27.4181 123.633 26.0437ZM63 8.26847L112.163 29.674L108.264 31.3716L63.4883 25.7479C61.3302 25.4786 59.3623 27.015 59.0925 29.1832C58.8228 31.3514 60.3536 33.3289 62.5115 33.5999L94.0488 37.5609L63 51.0793C35.2246 38.986 41.1404 41.5617 13.8369 29.6738L63 8.26847ZM94.5024 67.2611C94.5024 70.9889 91.4573 74.8269 86.1476 77.7906C73.5021 84.8493 52.5349 84.8701 39.8525 77.7906C34.5428 74.8269 31.4977 70.9889 31.4977 67.2611V45.9875L61.4343 59.0218C62.4315 59.4561 63.5649 59.4575 64.5658 59.0218L94.5024 45.9875V67.2611Z" fill="#EE6767"/>
</svg>
