<svg width="102" height="102" viewBox="0 0 102 102" fill="none" xmlns="http://www.w3.org/2000/svg">
<path d="M51 0.5C23.1543 0.5 0.5 23.1543 0.5 51C0.5 78.8457 23.1543 101.5 51 101.5C78.8457 101.5 101.5 78.8457 101.5 51C101.5 23.1543 78.8457 0.5 51 0.5ZM51 94.25C27.152 94.25 7.75003 74.848 7.75003 51C7.75003 27.152 27.152 7.75003 51 7.75003C74.848 7.75003 94.25 27.152 94.25 51C94.25 74.848 74.848 94.25 51 94.25Z" fill="#EE6767" stroke="#EE6767"/>
<path d="M54.625 19.75V19.25H54.125H47.875H47.375V19.75V52.2939V52.501L47.5214 52.6474L67.1869 72.3129L67.5405 72.6665L67.8941 72.3129L72.313 67.894L72.6666 67.5404L72.313 67.1869L54.625 49.4989V19.75Z" fill="#EE6767" stroke="#EE6767"/>
</svg>
