<svg width="24" height="24" viewBox="0 0 24 24" fill="none" xmlns="http://www.w3.org/2000/svg">
<path d="M12.7959 17.1081C11.8239 17.1081 10.9539 16.8981 10.1859 16.4781C9.42986 16.0581 8.83586 15.4821 8.40386 14.7501C7.97186 14.0061 7.75586 13.1661 7.75586 12.2301C7.75586 11.2941 7.97186 10.4601 8.40386 9.72812C8.83586 8.98412 9.42986 8.40812 10.1859 8.00012C10.9539 7.58012 11.8239 7.37012 12.7959 7.37012C13.6599 7.37012 14.4279 7.54412 15.0999 7.89212C15.7839 8.24012 16.3119 8.74412 16.6839 9.40412L15.3699 10.2501C15.0699 9.79412 14.6979 9.45212 14.2539 9.22412C13.8099 8.99612 13.3179 8.88212 12.7779 8.88212C12.1539 8.88212 11.5899 9.02012 11.0859 9.29612C10.5939 9.57212 10.2039 9.96812 9.91586 10.4841C9.63986 10.9881 9.50186 11.5701 9.50186 12.2301C9.50186 12.9021 9.63986 13.4961 9.91586 14.0121C10.2039 14.5161 10.5939 14.9061 11.0859 15.1821C11.5899 15.4581 12.1539 15.5961 12.7779 15.5961C13.3179 15.5961 13.8099 15.4821 14.2539 15.2541C14.6979 15.0261 15.0699 14.6841 15.3699 14.2281L16.6839 15.0561C16.3119 15.7161 15.7839 16.2261 15.0999 16.5861C14.4279 16.9341 13.6599 17.1081 12.7959 17.1081Z" fill="white"/>
<circle cx="12" cy="12" r="11.5" stroke="white"/>
</svg>
