<svg width="28" height="29" viewBox="0 0 28 29" fill="none" xmlns="http://www.w3.org/2000/svg">
<path d="M14 0.141602C6.556 0.141602 0.5 6.48148 0.5 14.2744C0.5 18.3193 2.132 21.9722 4.74225 24.5508C4.78688 24.6013 4.83475 24.6489 4.88725 24.6921C7.2905 26.998 10.4909 28.4072 14 28.4072C17.5091 28.4072 20.7095 26.9979 23.1128 24.6921C23.1653 24.6491 23.2131 24.6013 23.2578 24.5508C25.868 21.9722 27.5 18.3193 27.5 14.2744C27.5 6.48161 21.444 0.141602 14 0.141602ZM14 25.79C11.4296 25.79 9.06263 24.8621 7.18788 23.3097C8.516 20.6789 11.1042 19.0237 14 19.0237C16.8958 19.0237 19.484 20.6789 20.8121 23.3097C18.9374 24.8621 16.5704 25.79 14 25.79ZM11.3659 13.6489V12.6323C11.3659 11.1117 12.5475 9.87466 14 9.87466C15.4525 9.87466 16.6341 11.1117 16.6341 12.6323V13.6489C16.6341 15.1695 15.4525 16.4065 14 16.4065C12.5475 16.4065 11.3659 15.1695 11.3659 13.6489ZM22.6406 21.393C21.4955 19.4803 19.8194 18.0216 17.8576 17.1898C18.6512 16.2433 19.1341 15.0045 19.1341 13.649V12.6324C19.1341 9.66882 16.8309 7.2576 14 7.2576C11.1691 7.2576 8.86588 9.66882 8.86588 12.6324V13.649C8.86588 15.0045 9.34863 16.2433 10.1424 17.1898C8.18063 18.0217 6.50462 19.4803 5.35938 21.393C3.88238 19.4325 3 16.9594 3 14.2744C3 7.92472 7.93463 2.75879 14 2.75879C20.0654 2.75879 25 7.92472 25 14.2744C25 16.9594 24.1176 19.4325 22.6406 21.393Z" fill="#EE6767"/>
</svg>
