<svg width="64" height="64" viewBox="0 0 64 64" fill="none" xmlns="http://www.w3.org/2000/svg">
<g clip-path="url(#clip0)">
<path d="M14.502 55.6729C13.9841 55.6729 13.5645 56.0926 13.5645 56.6104V63.062C13.5645 63.5797 13.9841 63.9995 14.502 63.9995C15.0198 63.9995 15.4395 63.5797 15.4395 63.062V56.6104C15.4395 56.0926 15.0198 55.6729 14.502 55.6729Z" fill="#EB5757"/>
<path d="M57.803 49.0187H54.8001C53.7674 46.8968 52.0338 45.2174 49.8497 44.2497L37.625 39.0096C37.6226 39.0086 37.6202 39.0081 37.618 39.0071L37.552 38.9788C37.5538 38.9077 37.5582 38.8366 37.5582 38.7657V33.8331C40.0653 31.6341 41.6509 28.409 41.6509 24.8203V23.935H42.8821C44.3209 23.935 45.4914 22.7645 45.4914 21.3257V18.0201C45.4914 16.8206 44.6768 15.8102 43.5724 15.5064V13.5924C43.5724 6.09748 37.4746 0 29.9794 0H29.3496C21.8544 0 15.7564 6.09748 15.7564 13.5924V15.5063C14.6519 15.8099 13.8371 16.8204 13.8371 18.0202V21.3258C13.8371 22.7647 15.0075 23.9352 16.4464 23.9352H17.673V24.8204C17.673 28.4116 19.2608 31.6386 21.7706 33.8377V38.7658C21.7706 38.8523 21.7723 38.9387 21.775 39.0247L9.64032 44.3011C5.91733 45.8674 3.51172 49.4896 3.51172 53.5288V63.0616C3.51172 63.5794 3.93134 63.9991 4.44922 63.9991C4.96709 63.9991 5.38671 63.5794 5.38671 63.0616V53.5288C5.38671 50.2461 7.34183 47.3023 10.3777 46.0249L18.2215 42.6143L19.2113 44.3052C19.4729 44.7521 20.0473 44.9021 20.494 44.6407C20.9408 44.3791 21.091 43.8048 20.8295 43.358L19.9537 41.8617L21.9776 40.9817L22.3639 41.2793C22.3668 41.2816 22.3696 41.2838 22.3725 41.286L28.1987 45.7756L24.2931 49.2747L22.5025 46.2157C22.2409 45.7688 21.6668 45.6187 21.2198 45.8802C20.773 46.1418 20.6228 46.7161 20.8843 47.1629L23.2548 51.2124C23.397 51.4553 23.6408 51.6214 23.9189 51.665C23.9673 51.6727 24.0156 51.6763 24.0639 51.6763C24.293 51.6763 24.5163 51.5922 24.6895 51.437L28.2154 48.2782L25.3925 62.8844C25.2943 63.3927 25.6266 63.8845 26.135 63.9827C26.6435 64.0811 27.1351 63.7484 27.2333 63.2403L29.6641 50.6622L32.095 63.2403C32.1815 63.6885 32.5742 64 33.0144 64C33.0734 64 33.1331 63.9944 33.1932 63.9827C33.7016 63.8845 34.0341 63.3927 33.9357 62.8844L31.1129 48.2782L34.6387 51.437C34.812 51.5922 35.0351 51.6763 35.2643 51.6763C35.3126 51.6763 35.361 51.6725 35.4093 51.665C35.6875 51.6215 35.9312 51.4553 36.0735 51.2124L41.1403 42.5572L49.1005 45.9686C50.5765 46.6226 51.802 47.6827 52.6553 49.0187H42.4963C41.0162 49.0187 39.8121 50.2228 39.8121 51.7029V61.3155C39.8121 62.7956 41.0162 63.9997 42.4963 63.9997H57.803C59.2831 63.9997 60.4872 62.7956 60.4872 61.3155V51.7029C60.4872 50.2228 59.2831 49.0187 57.803 49.0187ZM43.6163 21.3257C43.6163 21.7305 43.2868 22.06 42.8819 22.06H41.6529V17.2857H42.8819C43.2868 17.2857 43.6163 17.6152 43.6163 18.0201V21.3257ZM16.4464 22.06C16.0415 22.06 15.712 21.7305 15.712 21.3257V18.0201C15.712 17.6152 16.0415 17.2857 16.4464 17.2857H17.673V22.06H16.4464ZM19.548 24.8203L19.5503 16.3482C19.5503 16.3421 19.5495 16.3361 19.5494 16.3299C19.5705 15.7189 19.7312 14.5952 20.5408 13.6334C21.3551 12.6663 22.3914 12.367 22.7318 12.2686C24.0814 11.8786 24.932 12.268 26.109 12.8067C27.2492 13.3288 28.5411 13.9213 30.4496 13.8263C31.9022 13.7546 32.9606 13.3082 33.8042 12.8809C34.2661 12.6469 34.451 12.083 34.217 11.621C33.983 11.1591 33.419 10.9745 32.9571 11.2082C32.1469 11.6186 31.3945 11.9025 30.3571 11.9536C28.9062 12.0253 27.9267 11.5767 26.8896 11.102C25.643 10.5312 24.2305 9.88409 22.2116 10.4672C20.935 10.836 19.8904 11.495 19.1065 12.4258C18.2579 13.4337 17.9043 14.5459 17.7619 15.4102H17.6317V13.5924C17.6317 7.13147 22.8884 1.87499 29.3497 1.87499H29.9795C36.4408 1.87499 41.6976 7.13135 41.6976 13.5924V15.4102H41.6132C41.5367 14.7433 41.3401 13.9652 40.9042 13.1809C40.1552 11.8335 38.8287 10.7665 37.3558 10.327C36.86 10.1792 36.3376 10.4612 36.1895 10.9572C36.0413 11.4533 36.3235 11.9756 36.8197 12.1237C37.1998 12.2371 38.4996 12.7143 39.2652 14.0919C39.728 14.9243 39.7988 15.7582 39.7768 16.3111C39.7763 16.3234 39.7761 16.3359 39.7761 16.3483V24.8204C39.7761 30.3969 35.239 34.9337 29.6621 34.9337C24.0851 34.9337 19.548 30.3969 19.548 24.8203ZM23.7749 39.9996C23.7409 39.8356 23.7113 39.67 23.691 39.5012C23.661 39.2627 23.6458 39.0152 23.6458 38.7658V35.1866C25.4151 36.2175 27.4707 36.8089 29.662 36.8089C31.8554 36.8089 33.9126 36.2164 35.6832 35.1837V38.766C35.6832 39.0007 35.6695 39.2377 35.6418 39.4725C35.6213 39.65 35.5922 39.8253 35.5563 39.9973L29.6641 44.5378L23.7749 39.9996ZM35.0352 49.2747L31.1296 45.7756L37.3918 40.95L38.9595 41.6215L39.404 41.812L35.0352 49.2747ZM58.6123 61.3155C58.6123 61.7618 58.2493 62.1248 57.803 62.1248H42.4963C42.0502 62.1248 41.6871 61.7618 41.6871 61.3155V51.7029C41.6871 51.2567 42.0501 50.8937 42.4963 50.8937H54.1949C54.1954 50.8937 54.196 50.8938 54.1965 50.8938C54.1974 50.8938 54.1983 50.8937 54.1991 50.8937H57.803C58.2491 50.8937 58.6123 51.2567 58.6123 51.7029V61.3155Z" fill="#EB5757"/>
<path d="M56.8531 55.0677C56.8531 53.6605 55.6673 52.5156 54.2096 52.5156H52.5586C52.5583 52.5156 52.558 52.5156 52.5576 52.5156C52.5573 52.5156 52.557 52.5156 52.5566 52.5156C52.0388 52.5156 51.6191 52.9354 51.6191 53.4531V59.6657C51.6191 60.1835 52.0388 60.6032 52.5566 60.6032C53.0745 60.6032 53.4941 60.1835 53.4941 59.6657V58.3334L55.212 60.2851C55.3973 60.4958 55.6561 60.6032 55.9161 60.6032C56.1361 60.6032 56.357 60.5262 56.5351 60.3695C56.9238 60.0274 56.9615 59.435 56.6195 59.0464L55.1991 57.4326C56.1675 57.0536 56.8531 56.1372 56.8531 55.0677ZM54.2096 54.3906C54.6263 54.3906 54.9781 54.7006 54.9781 55.0677C54.9781 55.4347 54.6263 55.7449 54.2096 55.7449C54.0404 55.7449 53.773 55.7459 53.5025 55.7471C53.5013 55.4861 53.5003 55.2299 53.5003 55.0679C53.5003 54.9287 53.4996 54.6653 53.4989 54.3908H54.2096V54.3906Z" fill="#EB5757"/>
<path d="M48.779 52.5156C48.2611 52.5156 47.8415 52.9354 47.8415 53.4531V55.5154H45.417V53.4531C45.417 52.9354 44.9974 52.5156 44.4795 52.5156C43.9616 52.5156 43.542 52.9354 43.542 53.4531V59.6657C43.542 60.1835 43.9616 60.6032 44.4795 60.6032C44.9974 60.6032 45.417 60.1835 45.417 59.6657V57.3904H47.8415V59.6657C47.8415 60.1835 48.2611 60.6032 48.779 60.6032C49.2969 60.6032 49.7165 60.1835 49.7165 59.6657V53.4531C49.7165 52.9354 49.2969 52.5156 48.779 52.5156Z" fill="#EB5757"/>
</g>
<defs>
<clipPath id="clip0">
<rect width="64" height="64" fill="white"/>
</clipPath>
</defs>
</svg>
