<svg width="64" height="64" viewBox="0 0 64 64" fill="none" xmlns="http://www.w3.org/2000/svg">
<g clip-path="url(#clip0)">
<path d="M37.925 20.131V7.50391C37.925 6.98603 37.5054 6.56641 36.9875 6.56641H11.7334C11.2156 6.56641 10.7959 6.98603 10.7959 7.50391V20.131C10.7959 20.6489 11.2156 21.0685 11.7334 21.0685H36.9874C37.5053 21.0685 37.925 20.6489 37.925 20.131ZM36.05 19.1935H12.6709V8.44141H36.0499V19.1935H36.05Z" fill="#EE6767"/>
<path d="M19.3096 41.417H11.7334C11.2156 41.417 10.7959 41.8366 10.7959 42.3545C10.7959 42.8724 11.2156 43.292 11.7334 43.292H19.3095C19.8273 43.292 20.247 42.8724 20.247 42.3545C20.247 41.8366 19.8274 41.417 19.3096 41.417Z" fill="#EE6767"/>
<path d="M19.3096 45.457H11.7334C11.2156 45.457 10.7959 45.8767 10.7959 46.3945C10.7959 46.9124 11.2156 47.332 11.7334 47.332H19.3095C19.8273 47.332 20.247 46.9124 20.247 46.3945C20.247 45.8767 19.8274 45.457 19.3096 45.457Z" fill="#EE6767"/>
<path d="M49.4889 18.94C47.8725 18.94 46.3188 19.2121 44.8702 19.712V9.25625C44.8702 8.73838 44.4505 8.31875 43.9327 8.31875C43.4148 8.31875 42.9952 8.73838 42.9952 9.25625V20.5146C38.4245 22.8758 35.2927 27.647 35.2927 33.1362C35.2927 35.6839 35.9708 38.1666 37.2579 40.3461L35.3408 46.0988C35.2285 46.4355 35.3163 46.807 35.5673 47.0581C35.746 47.2367 35.9857 47.3326 36.2304 47.3326C36.3295 47.3326 36.4297 47.3169 36.5267 47.2845L42.2793 45.3674C42.5143 45.5061 42.7535 45.6365 42.9954 45.761V50.0025H27.9377C27.4199 50.0025 27.0002 50.4221 27.0002 50.94C27.0002 51.4579 27.4199 51.8775 27.9377 51.8775H42.9952V54.0438H7.31428C5.68341 54.0438 4.35641 55.3706 4.35641 57.0015C4.35641 58.6325 5.68328 59.9594 7.31428 59.9594H42.9952V62.125H7.31391C4.48928 62.125 2.19141 59.8265 2.19141 57.0013C2.19141 54.176 4.48928 51.8775 7.31391 51.8775H23.5627C24.0804 51.8775 24.5002 51.4579 24.5002 50.94C24.5002 50.4221 24.0804 50.0025 23.5627 50.0025H7.31391C5.29266 50.0025 3.47003 50.865 2.19141 52.2402V6.99875C2.19141 4.1735 4.48941 1.875 7.31391 1.875H42.9952V4.88125C42.9952 5.39913 43.4148 5.81875 43.9327 5.81875C44.4505 5.81875 44.8702 5.39913 44.8702 4.88125V0.9375C44.8702 0.419625 44.4505 0 43.9327 0H7.31391C3.45541 0 0.316406 3.13963 0.316406 6.99875V57.0013C0.316406 60.8604 3.45541 64 7.31391 64H43.9327C44.4505 64 44.8702 63.5804 44.8702 63.0625V46.5625C46.3465 47.07 47.9052 47.3325 49.4889 47.3325C53.2398 47.3325 56.7763 45.8831 59.4469 43.2515C59.8157 42.8881 59.8199 42.2946 59.4565 41.9258C59.093 41.5569 58.4994 41.5525 58.1308 41.9161C55.8133 44.2 52.7442 45.4576 49.4889 45.4576C47.1464 45.4576 44.8674 44.7975 42.8985 43.5485C42.6604 43.3974 42.3673 43.3616 42.0999 43.4507L37.7122 44.913L39.1744 40.5252C39.2635 40.2579 39.2277 39.9647 39.0767 39.7266C37.8277 37.7577 37.1675 35.4789 37.1675 33.1362C37.1675 26.3422 42.6949 20.815 49.4888 20.815C56.282 20.815 61.8088 26.3424 61.8088 33.1362C61.8088 35.071 61.3737 36.9215 60.5154 38.6369C60.2837 39.0999 60.4712 39.663 60.9343 39.8946C61.3977 40.1264 61.9607 39.9389 62.1922 39.4756C63.1819 37.4976 63.6838 35.3646 63.6838 33.1361C63.6839 25.3084 57.3162 18.94 49.4889 18.94ZM7.31428 58.0844C6.71728 58.0844 6.23141 57.5985 6.23141 57.0015C6.23141 56.4045 6.71716 55.9188 7.31428 55.9188H42.9952V58.0844H7.31428Z" fill="#EE6767"/>
<path d="M49.489 22.9814C47.8581 22.9814 46.5312 24.3083 46.5312 25.9392C46.5312 27.5702 47.8581 28.8971 49.489 28.8971C51.12 28.8971 52.4469 27.5702 52.4469 25.9392C52.447 24.3083 51.12 22.9814 49.489 22.9814ZM49.489 27.0221C48.892 27.0221 48.4063 26.5362 48.4063 25.9392C48.4063 25.3422 48.892 24.8564 49.489 24.8564C50.086 24.8564 50.5719 25.3422 50.5719 25.9392C50.5719 26.5362 50.0861 27.0221 49.489 27.0221Z" fill="#EE6767"/>
<path d="M49.489 31.0625C47.8581 31.0625 46.5312 32.3894 46.5312 34.0202V40.3339C46.5312 41.9647 47.8581 43.2916 49.489 43.2916C51.12 43.2916 52.4469 41.9647 52.4469 40.3339V34.0202C52.447 32.3894 51.12 31.0625 49.489 31.0625ZM50.572 40.3339C50.572 40.9309 50.0861 41.4166 49.4891 41.4166C48.8921 41.4166 48.4064 40.9309 48.4064 40.3339V34.0202C48.4064 33.4232 48.8921 32.9375 49.4891 32.9375C50.0861 32.9375 50.572 33.4232 50.572 34.0202V40.3339Z" fill="#EE6767"/>
</g>
<defs>
<clipPath id="clip0">
<rect width="64" height="64" fill="white"/>
</clipPath>
</defs>
</svg>
