<svg width="116" height="116" viewBox="0 0 116 116" fill="none" xmlns="http://www.w3.org/2000/svg">
<path d="M10.1953 43.5H0V34.4375H10.1953V43.5ZM4.17459 61.3993L8.25183 69.4927L17.8666 64.65L13.7902 56.5565L4.17459 61.3993ZM17.64 12.5955L8.25095 7.86685L4.17459 15.9612L13.5637 20.6889L17.64 12.5955ZM107.95 43.5C107.521 45.1603 106.859 46.7267 106.006 48.1684L111.76 53.9219L105.352 60.3302L99.5981 54.5768C98.1564 55.429 96.59 56.091 94.9297 56.5203V64.5703H85.8672V56.5203C84.2069 56.091 82.6404 55.429 81.1988 54.5768L75.4453 60.3302L69.037 53.9219L74.7904 48.1684C73.9381 46.7267 73.2762 45.1603 72.8469 43.5H64.5703V34.4375H72.8469C73.2762 32.7772 73.9381 31.2108 74.7904 29.7691L69.037 24.0156L75.4453 17.6073L81.1988 23.3607C82.6404 22.5085 84.2069 21.8465 85.8672 21.4172V13.3672H94.9297V21.4172C96.59 21.8465 98.1564 22.5085 99.5981 23.3607L105.352 17.6073L111.76 24.0156L106.006 29.7691C106.859 31.2108 107.521 32.7772 107.95 34.4375H116V43.5H107.95ZM81.3359 38.7988C81.3359 43.7478 85.2326 47.9118 90.1798 48.0286C95.2766 48.149 99.4609 44.039 99.4609 38.9688C99.4609 33.972 95.3952 29.9062 90.3984 29.9062C90.3471 29.9062 90.2922 29.9062 90.2338 29.9062C85.3211 29.9045 81.3359 33.8861 81.3359 38.7988ZM74.155 69.5839C76.9038 71.0477 79.8721 72.1522 82.9962 72.8345C78.9367 78.2703 75.9241 83.0644 75.9241 90.4922V102.406C75.9241 109.902 69.8255 116 62.3304 116H53.6705C46.1745 116 40.0768 109.902 40.0768 102.406V90.4922C40.0768 82.1298 36.2589 77.1056 31.4267 70.7468C25.6485 63.1428 19.1038 54.5308 19.0321 38.9688H19.0312L19.0321 38.7094C19.172 17.3409 36.5987 0 58 0C65.7589 0 72.9947 2.28067 79.0747 6.20569C75.5905 7.41373 72.3557 9.16251 69.4733 11.352C65.9385 9.87848 62.0631 9.0625 58 9.0625C41.5477 9.0625 28.1557 22.4155 28.0938 38.8537C28.1327 51.4332 33.2383 58.1522 38.6422 65.2633C42.8354 70.7813 47.1445 76.4525 48.6127 84.5078H67.39C68.4812 78.5216 71.1397 73.8514 74.155 69.5839ZM66.8607 102.406V93.5703H49.1384V102.406C49.1384 104.905 51.1713 106.938 53.6696 106.938H62.3295C64.8287 106.938 66.8607 104.905 66.8607 102.406Z" fill="#EE6767"/>
</svg>
