<svg width="54" height="54" viewBox="0 0 54 54" fill="none" xmlns="http://www.w3.org/2000/svg">
<path d="M50.3625 36.8583C46.775 36.8583 43.3042 36.275 40.0667 35.225C39.0458 34.875 37.9083 35.1375 37.1208 35.925L32.5417 41.6708C24.2875 37.7333 16.5583 30.2958 12.4458 21.75L18.1333 16.9083C18.9208 16.0917 19.1542 14.9542 18.8333 13.9333C17.7542 10.6958 17.2 7.225 17.2 3.6375C17.2 2.0625 15.8875 0.75 14.3125 0.75H4.22083C2.64583 0.75 0.75 1.45 0.75 3.6375C0.75 30.7333 23.2958 53.25 50.3625 53.25C52.4333 53.25 53.25 51.4125 53.25 49.8083V39.7458C53.25 38.1708 51.9375 36.8583 50.3625 36.8583Z" fill="#EE6767"/>
</svg>
