<svg width="90" height="90" viewBox="0 0 90 90" fill="none" xmlns="http://www.w3.org/2000/svg">
<path d="M45 89.1669C20.6186 89.1401 0.860149 69.3817 0.833374 45.0002V44.1169C1.3189 19.8453 21.3028 0.515383 45.5772 0.837463C69.8516 1.15954 89.3156 21.0128 89.1569 45.2888C88.9983 69.5648 69.2766 89.1621 45 89.1669ZM44.9294 80.3336H45C64.5072 80.3141 80.3078 64.4898 80.298 44.9826C80.2883 25.4754 64.4719 9.66693 44.9647 9.66693C25.4575 9.66693 9.64113 25.4754 9.63137 44.9826C9.62163 64.4898 25.4222 80.3141 44.9294 80.3336ZM49.4167 71.5002H40.5834V62.6669H49.4167V71.5002ZM49.4167 58.2502H40.5834C40.4438 52.4983 43.4372 47.1237 48.4009 44.2141C51.3159 41.9792 53.8334 40.0536 53.8334 36.1669C53.8334 31.2884 49.8786 27.3336 45 27.3336C40.1215 27.3336 36.1667 31.2884 36.1667 36.1669H27.3334V35.7694C27.4044 29.4577 30.8372 23.6634 36.3388 20.569C41.8404 17.4747 48.5749 17.5504 54.0055 20.7678C59.4361 23.9851 62.7377 29.8552 62.6667 36.1669C62.3504 40.9326 59.7944 45.2664 55.7767 47.849C52.1449 50.1288 49.791 53.9785 49.4167 58.2502Z" fill="#105C86"/>
</svg>
