<svg width="64" height="67" viewBox="0 0 64 67" fill="none" xmlns="http://www.w3.org/2000/svg">
<path d="M57.6167 35.1347C58.1822 34.2569 58.5127 33.2001 58.5127 32.064V31.0143C58.5127 27.978 56.153 25.5076 53.2526 25.5076C51.8055 25.5076 50.493 26.1228 49.541 27.1163C47.0778 19.447 40.1454 13.9072 32 13.9072C23.8546 13.9072 16.9222 19.4469 14.459 27.1163C13.507 26.1228 12.1946 25.5076 10.7474 25.5076C7.847 25.5076 5.48725 27.978 5.48725 31.0143V32.064C5.48725 33.2001 5.81775 34.2569 6.38325 35.1347C2.74213 35.9379 0 39.3265 0 43.3737V46.0085C0 46.7311 0.55975 47.3171 1.25 47.3171H7.75C8.44025 47.3171 9 46.7311 9 46.0085C9 45.2859 8.44025 44.6999 7.75 44.6999H2.5V43.3737C2.5 40.1738 4.98675 37.5705 8.04338 37.5705H13.9595C14.4392 39.7796 15.2801 41.8466 16.4146 43.6988L2.15225 58.6297C0.326 60.5417 0.326 63.6529 2.15237 65.565C3.06562 66.5211 4.265 66.999 5.46462 66.999C6.66425 66.999 7.86388 66.5209 8.77713 65.565L16.64 57.3334C17.1281 56.8224 17.1281 55.9938 16.64 55.4827C16.1517 54.9718 15.3605 54.9718 14.8721 55.4827L7.00938 63.7143C6.1575 64.6059 4.77175 64.6058 3.92 63.7144C3.06838 62.8227 3.06838 61.3719 3.92 60.4802L17.9209 45.8232C21.3167 49.9926 26.3681 52.6416 32 52.6416C40.791 52.6416 48.1688 46.1889 50.0405 37.5705H55.9566C59.0133 37.5705 61.5 40.1738 61.5 43.3737V44.6999H49.75C49.0597 44.6999 48.5 45.2859 48.5 46.0085C48.5 46.7311 49.0597 47.3171 49.75 47.3171H62.75C63.4403 47.3171 64 46.7311 64 46.0085V43.3737C64 39.3265 61.2579 35.9379 57.6167 35.1347ZM13.5075 32.0641C13.5075 33.6573 12.2694 34.9535 10.7474 34.9535C9.22537 34.9535 7.98725 33.6573 7.98725 32.0641V31.0145C7.98725 29.4211 9.22537 28.125 10.7474 28.125C12.2694 28.125 13.5075 29.4211 13.5075 31.0145V32.0641ZM32 50.0244C23.1776 50.0244 16 42.5103 16 33.2744C16 24.0385 23.1776 16.5244 32 16.5244C40.8224 16.5244 48 24.0385 48 33.2744C48 42.5103 40.8224 50.0244 32 50.0244ZM56.0126 32.0641C56.0126 33.6573 54.7745 34.9535 53.2525 34.9535C51.7305 34.9535 50.4924 33.6573 50.4924 32.0641V31.0145C50.4924 29.4211 51.7305 28.125 53.2525 28.125C54.7745 28.125 56.0126 29.4211 56.0126 31.0145V32.0641Z" fill="#EE6767"/>
<path d="M32 19.1416C24.556 19.1416 18.5 25.4815 18.5 33.2744C18.5 37.3193 20.132 40.9722 22.7423 43.5508C22.7869 43.6013 22.8348 43.6489 22.8873 43.6921C25.2905 45.998 28.4909 47.4072 32 47.4072C35.5091 47.4072 38.7095 45.9979 41.1128 43.6921C41.1653 43.6491 41.2131 43.6013 41.2578 43.5508C43.868 40.9722 45.5 37.3193 45.5 33.2744C45.5 25.4816 39.444 19.1416 32 19.1416ZM32 44.79C29.4296 44.79 27.0626 43.8621 25.1879 42.3097C26.516 39.6789 29.1042 38.0237 32 38.0237C34.8958 38.0237 37.484 39.6789 38.8121 42.3097C36.9374 43.8621 34.5704 44.79 32 44.79ZM29.3659 32.6489V31.6323C29.3659 30.1117 30.5475 28.8747 32 28.8747C33.4525 28.8747 34.6341 30.1117 34.6341 31.6323V32.6489C34.6341 34.1695 33.4525 35.4065 32 35.4065C30.5475 35.4065 29.3659 34.1695 29.3659 32.6489ZM40.6406 40.393C39.4955 38.4803 37.8194 37.0216 35.8576 36.1898C36.6512 35.2433 37.1341 34.0045 37.1341 32.649V31.6324C37.1341 28.6688 34.8309 26.2576 32 26.2576C29.1691 26.2576 26.8659 28.6688 26.8659 31.6324V32.649C26.8659 34.0045 27.3486 35.2433 28.1424 36.1898C26.1806 37.0217 24.5046 38.4803 23.3594 40.393C21.8824 38.4325 21 35.9594 21 33.2744C21 26.9247 25.9346 21.7588 32 21.7588C38.0654 21.7588 43 26.9247 43 33.2744C43 35.9594 42.1176 38.4325 40.6406 40.393Z" fill="#EE6767"/>
<path d="M19.9834 51.9821C19.7509 51.7387 19.4284 51.5986 19.0996 51.5986C18.7709 51.5986 18.4484 51.7387 18.2159 51.9821C17.9835 52.2255 17.8496 52.5631 17.8496 52.9072C17.8496 53.2514 17.9834 53.589 18.2159 53.8324C18.4484 54.0757 18.7709 54.2158 19.0996 54.2158C19.4284 54.2158 19.7509 54.0758 19.9834 53.8324C20.2157 53.589 20.3496 53.2514 20.3496 52.9072C20.3496 52.5631 20.2159 52.2255 19.9834 51.9821Z" fill="#EE6767"/>
<path d="M32.0254 0.000976562C31.3351 0.000976562 30.7754 0.586965 30.7754 1.30957V5.76193C30.7754 6.48467 31.3351 7.07052 32.0254 7.07052C32.7156 7.07052 33.2754 6.48454 33.2754 5.76193V1.30957C33.2754 0.586965 32.7156 0.000976562 32.0254 0.000976562Z" fill="#EE6767"/>
<path d="M32.909 9.15197C32.6766 8.90857 32.3553 8.76855 32.0254 8.76855C31.6965 8.76855 31.3741 8.90844 31.1416 9.15197C30.9091 9.3955 30.7754 9.73299 30.7754 10.0771C30.7754 10.4213 30.909 10.7589 31.1416 11.0022C31.3741 11.2456 31.6965 11.3857 32.0254 11.3857C32.3554 11.3857 32.6766 11.2457 32.909 11.0022C33.1415 10.7589 33.2754 10.4213 33.2754 10.0771C33.2754 9.73299 33.1416 9.39537 32.909 9.15197Z" fill="#EE6767"/>
<path d="M42.622 5.13413C42.1337 4.62326 41.3425 4.62326 40.8541 5.13413L38.6571 7.43412C38.169 7.94512 38.169 8.77373 38.6571 9.28486C38.9014 9.5403 39.2211 9.66815 39.5411 9.66815C39.8611 9.66815 40.1809 9.5403 40.425 9.28486L42.622 6.98488C43.1101 6.47387 43.1101 5.64527 42.622 5.13413Z" fill="#EE6767"/>
<path d="M25.3638 7.45037L23.1457 5.12827C22.6574 4.6174 21.8662 4.6174 21.3778 5.12827C20.8897 5.63928 20.8897 6.46788 21.3778 6.97902L23.5961 9.30112C23.8402 9.55655 24.1601 9.6844 24.4799 9.6844C24.7998 9.6844 25.1197 9.55655 25.3638 9.30112C25.8519 8.79011 25.8519 7.96151 25.3638 7.45037Z" fill="#EE6767"/>
</svg>
