<svg width="58" height="64" viewBox="0 0 58 64" fill="none" xmlns="http://www.w3.org/2000/svg">
<path d="M54.803 49.0187H51.8001C50.7674 46.8968 49.0338 45.2174 46.8497 44.2497L34.625 39.0096C34.6226 39.0086 34.6202 39.0081 34.618 39.0071L34.552 38.9788C34.5538 38.9077 34.5582 38.8366 34.5582 38.7657V33.8331C37.0653 31.6341 38.6509 28.409 38.6509 24.8203V23.935H39.8821C41.3209 23.935 42.4914 22.7645 42.4914 21.3257V18.0201C42.4914 16.8206 41.6768 15.8102 40.5724 15.5064V13.5924C40.5724 6.09748 34.4746 0 26.9794 0H26.3496C18.8544 0 12.7564 6.09748 12.7564 13.5924V15.5063C11.6519 15.8099 10.8371 16.8204 10.8371 18.0202V21.3258C10.8371 22.7647 12.0075 23.9352 13.4464 23.9352H14.673V24.8204C14.673 28.4116 16.2608 31.6386 18.7706 33.8377V38.7658C18.7706 38.8523 18.7723 38.9387 18.775 39.0247L6.64032 44.3011C2.91733 45.8674 0.511719 49.4896 0.511719 53.5288V63.0616C0.511719 63.5794 0.931342 63.9991 1.44922 63.9991C1.96709 63.9991 2.38671 63.5794 2.38671 63.0616V53.5288C2.38671 50.2461 4.34183 47.3023 7.37769 46.0249L15.2215 42.6143L16.2113 44.3052C16.4729 44.7521 17.0473 44.9021 17.494 44.6407C17.9408 44.3791 18.091 43.8048 17.8295 43.358L16.9537 41.8617L18.9776 40.9817L19.3639 41.2793C19.3668 41.2816 19.3696 41.2838 19.3725 41.286L25.1987 45.7756L21.2931 49.2747L19.5025 46.2157C19.2409 45.7688 18.6668 45.6187 18.2198 45.8802C17.773 46.1418 17.6228 46.7161 17.8843 47.1629L20.2548 51.2124C20.397 51.4553 20.6408 51.6214 20.9189 51.665C20.9673 51.6727 21.0156 51.6763 21.0639 51.6763C21.293 51.6763 21.5163 51.5922 21.6895 51.437L25.2154 48.2782L22.3925 62.8844C22.2943 63.3927 22.6266 63.8845 23.135 63.9827C23.6435 64.0811 24.1351 63.7484 24.2333 63.2403L26.6641 50.6622L29.095 63.2403C29.1815 63.6885 29.5742 64 30.0144 64C30.0734 64 30.1331 63.9944 30.1932 63.9827C30.7016 63.8845 31.0341 63.3927 30.9357 62.8844L28.1129 48.2782L31.6387 51.437C31.812 51.5922 32.0351 51.6763 32.2643 51.6763C32.3126 51.6763 32.361 51.6725 32.4093 51.665C32.6875 51.6215 32.9312 51.4553 33.0735 51.2124L38.1403 42.5572L46.1005 45.9686C47.5765 46.6226 48.802 47.6827 49.6553 49.0187H39.4963C38.0162 49.0187 36.8121 50.2228 36.8121 51.7029V61.3155C36.8121 62.7956 38.0162 63.9997 39.4963 63.9997H54.803C56.2831 63.9997 57.4872 62.7956 57.4872 61.3155V51.7029C57.4872 50.2228 56.2831 49.0187 54.803 49.0187ZM40.6163 21.3257C40.6163 21.7305 40.2868 22.06 39.8819 22.06H38.6529V17.2857H39.8819C40.2868 17.2857 40.6163 17.6152 40.6163 18.0201V21.3257ZM13.4464 22.06C13.0415 22.06 12.712 21.7305 12.712 21.3257V18.0201C12.712 17.6152 13.0415 17.2857 13.4464 17.2857H14.673V22.06H13.4464ZM16.548 24.8203L16.5503 16.3482C16.5503 16.3421 16.5495 16.3361 16.5494 16.3299C16.5705 15.7189 16.7312 14.5952 17.5408 13.6334C18.3551 12.6663 19.3914 12.367 19.7318 12.2686C21.0814 11.8786 21.932 12.268 23.109 12.8067C24.2492 13.3288 25.5411 13.9213 27.4496 13.8263C28.9022 13.7546 29.9606 13.3082 30.8042 12.8809C31.2661 12.6469 31.451 12.083 31.217 11.621C30.983 11.1591 30.419 10.9745 29.9571 11.2082C29.1469 11.6186 28.3945 11.9025 27.3571 11.9536C25.9062 12.0253 24.9267 11.5767 23.8896 11.102C22.643 10.5312 21.2305 9.88409 19.2116 10.4672C17.935 10.836 16.8904 11.495 16.1065 12.4258C15.2579 13.4337 14.9043 14.5459 14.7619 15.4102H14.6317V13.5924C14.6317 7.13147 19.8884 1.87499 26.3497 1.87499H26.9795C33.4408 1.87499 38.6976 7.13135 38.6976 13.5924V15.4102H38.6132C38.5367 14.7433 38.3401 13.9652 37.9042 13.1809C37.1552 11.8335 35.8287 10.7665 34.3558 10.327C33.86 10.1792 33.3376 10.4612 33.1895 10.9572C33.0413 11.4533 33.3235 11.9756 33.8197 12.1237C34.1998 12.2371 35.4996 12.7143 36.2652 14.0919C36.728 14.9243 36.7988 15.7582 36.7768 16.3111C36.7763 16.3234 36.7761 16.3359 36.7761 16.3483V24.8204C36.7761 30.3969 32.239 34.9337 26.6621 34.9337C21.0851 34.9337 16.548 30.3969 16.548 24.8203ZM20.7749 39.9996C20.7409 39.8356 20.7113 39.67 20.691 39.5012C20.661 39.2627 20.6458 39.0152 20.6458 38.7658V35.1866C22.4151 36.2175 24.4707 36.8089 26.662 36.8089C28.8554 36.8089 30.9126 36.2164 32.6832 35.1837V38.766C32.6832 39.0007 32.6695 39.2377 32.6418 39.4725C32.6213 39.65 32.5922 39.8253 32.5563 39.9973L26.6641 44.5378L20.7749 39.9996ZM32.0352 49.2747L28.1296 45.7756L34.3918 40.95L35.9595 41.6215L36.404 41.812L32.0352 49.2747ZM55.6123 61.3155C55.6123 61.7618 55.2493 62.1248 54.803 62.1248H39.4963C39.0502 62.1248 38.6871 61.7618 38.6871 61.3155V51.7029C38.6871 51.2567 39.0501 50.8937 39.4963 50.8937H51.1949C51.1954 50.8937 51.196 50.8938 51.1965 50.8938C51.1974 50.8938 51.1983 50.8937 51.1991 50.8937H54.803C55.2491 50.8937 55.6123 51.2567 55.6123 51.7029V61.3155Z" fill="#EB5757"/>
</svg>
